<svg viewBox="0 0 100 100" xmlns="http://www.w3.org/2000/svg" fill="#D4AF37">
  <defs>
    <mask id="m">
      <rect width="100" height="100" fill="white" />
      <circle cx="60" cy="50" r="34" fill="black" />
    </mask>
  </defs>
  <rect width="100" height="100" fill="#050505" />
  <circle cx="50" cy="50" r="44" mask="url(#m)" />
  <g transform="translate(34, 38)">
    <polygon points="2,10 7,-2 11,10" />
    <polygon points="13,10 18,-2 22,10" />
    <path d="M 0,9 H 24 V 17 Q 24,21 20,21 H 4 Q 0,21 0,17 Z" />
    <path d="M 22,12 L 34,15 L 34,19 L 22,19 Z" />
  </g>
  <g>
    <circle cx="80" cy="22" r="1.6" />
    <circle cx="86" cy="32" r="2" />
    <circle cx="89" cy="44" r="2.4" />
    <circle cx="89" cy="56" r="2.4" />
    <circle cx="86" cy="68" r="2" />
    <circle cx="80" cy="78" r="1.6" />
  </g>
</svg>
